<?xml version="1.0" standalone="no"?><!DOCTYPE svg PUBLIC "-//W3C//DTD SVG 1.1//EN" "http://www.w3.org/Graphics/SVG/1.1/DTD/svg11.dtd"><svg t="1645255832068" class="icon" viewBox="0 0 1024 1024" version="1.1" xmlns="http://www.w3.org/2000/svg" p-id="2848" xmlns:xlink="http://www.w3.org/1999/xlink" width="14" height="14"><defs><style type="text/css"></style></defs><path d="M199.111111 0h625.777778c109.795556 0 199.111111 89.315556 199.111111 199.111111v625.777778c0 109.795556-89.315556 199.111111-199.111111 199.111111H199.111111c-109.795556 0-199.111111-89.315556-199.111111-199.111111V199.111111C0 89.315556 89.315556 0 199.111111 0z" fill="#EAEAEA" p-id="2849"></path><path d="M515.413333 251.448889c44.942222-2.275556 89.315556 3.413333 131.982223 18.204444 36.977778 12.515556 71.111111 31.288889 100.693333 56.32 26.737778 22.186667 48.355556 49.493333 63.715555 80.782223 9.671111 20.48 16.497778 42.666667 18.773334 64.853333 2.275556 17.066667 2.275556 34.702222-3.413334 51.2-5.688889 16.497778-15.928889 30.72-30.151111 40.96-18.204444 13.653333-39.822222 21.617778-62.008889 26.737778-36.977778 9.102222-75.093333 12.515556-112.64 15.928889-40.391111 2.844444-80.782222 5.688889-120.604444 9.102222-27.306667 2.275556-54.044444 4.551111-81.351111 5.688889-24.462222 1.706667-48.924444 0.568889-73.386667-1.706667-21.617778-2.844444-42.666667-7.964444-61.44-19.342222-14.222222-8.533333-25.031111-21.617778-31.857778-36.408889-9.102222-19.911111-10.808889-42.097778-10.24-63.715556 1.137778-47.217778 18.773333-93.866667 46.648889-131.413333 34.133333-46.08 83.057778-80.213333 136.533334-99.555556 29.013333-9.671111 58.595556-15.36 88.746666-17.635555z m-26.737777 81.92c-3.982222 0.568889-7.964444 2.275556-11.377778 5.12-3.982222 4.551111-6.826667 9.671111-8.533334 14.791111-4.551111 13.653333-7.395556 28.444444-8.533333 42.666667-1.706667 24.462222-1.137778 49.493333 2.275556 73.955555 2.275556 15.36 5.12 30.72 11.946666 44.373334 3.413333 6.257778 7.395556 13.084444 14.222223 16.497777 7.395556 2.844444 14.791111 1.706667 22.186666 0 15.36-3.413333 30.151111-10.24 44.373334-17.066666 18.773333-9.671111 36.408889-21.048889 53.475555-34.133334 13.084444-10.24 26.168889-21.617778 36.408889-35.271111 4.551111-6.826667 9.671111-14.791111 6.826667-23.324444-3.413333-9.102222-10.808889-16.497778-18.204445-23.324445-13.653333-11.946667-29.013333-22.755556-44.942222-31.288889-18.773333-10.808889-38.684444-19.911111-59.164444-27.306666-13.084444-3.413333-26.737778-7.395556-40.96-5.688889z m172.373333 382.862222c15.36-6.257778 30.72-13.653333 43.804444-23.893333 0.568889 21.048889-4.551111 42.097778-13.084444 61.44l-0.568889-0.568889c-6.257778-6.826667-13.653333-13.084444-19.342222-20.48-3.982222-5.688889-7.395556-11.377778-10.808889-16.497778z m-230.968889 37.546667c-1.137778-8.533333-2.844444-17.635556-0.568889-26.168889 16.497778 5.12 32.995556 7.964444 50.062222 9.671111-10.24 17.635556-26.168889 31.288889-43.235555 42.097778-0.568889-0.568889-1.137778-1.137778-1.137778-1.706667-1.706667-7.964444-4.551111-15.928889-5.12-23.893333z" fill="#F6F8F9" p-id="2850"></path><path d="M545.564444 178.631111c18.204444-18.773333 41.528889-34.702222 67.697778-40.96 4.551111-1.137778 9.102222 1.137778 13.653334 2.275556 34.133333 11.377778 64.853333 31.857778 91.022222 56.32 27.306667 25.6 50.631111 54.613333 69.404444 87.04 1.137778 2.275556 2.275556 3.982222 3.413334 6.257777-25.6-27.875556-50.631111-56.888889-79.644445-81.351111-24.462222-19.911111-51.2-36.408889-80.213333-48.355555-3.413333-1.137778-6.826667-3.413333-10.24-3.982222-26.168889 2.275556-51.2 11.377778-75.093334 22.755555z m-291.271111-35.271111c48.355556 5.688889 96.711111 18.204444 139.377778 41.528889 2.844444 1.706667 6.257778 3.413333 9.671111 5.688889-6.826667-1.706667-13.084444-4.551111-19.911111-6.257778-35.84-10.808889-72.817778-18.204444-110.364444-17.066667-2.844444 0-6.257778 0-8.533334 2.275556-11.377778 11.377778-19.911111 25.6-27.306666 39.822222-15.928889 31.288889-29.582222 63.146667-40.391111 96.711111-2.844444 8.533333-5.12 17.635556-7.964445 26.168889 5.12-60.302222 25.6-118.328889 55.182222-170.666667 2.844444-6.257778 6.257778-11.946667 10.24-18.204444zM426.666667 248.035556c80.782222-27.306667 171.235556-22.186667 249.742222 10.24 32.426667 13.653333 62.577778 31.857778 89.315555 55.182222 27.875556 23.893333 50.062222 53.475556 65.991112 86.471111 9.102222 18.773333 15.36 39.253333 18.773333 59.733333 4.551111 26.737778 3.982222 55.751111-7.395556 81.351111-1.706667 3.982222-3.413333 7.964444-6.257777 10.808889-1.706667 5.12-5.688889 8.533333-9.102223 13.084445-19.342222 22.755556-47.786667 35.84-76.231111 44.373333-40.96 11.377778-83.626667 15.36-126.293333 18.773333-29.582222 2.275556-59.164444 3.982222-88.746667 6.826667-51.2 3.982222-102.4 10.24-153.6 9.102222-21.048889 0-42.097778-2.275556-62.577778-6.826666-15.928889-3.413333-31.288889-9.671111-45.511111-18.204445-15.928889-9.671111-28.444444-23.893333-36.977777-40.391111-11.377778-21.617778-14.791111-46.08-14.791112-70.542222 0-51.2 17.066667-102.4 46.648889-144.497778 36.977778-54.613333 93.866667-94.435556 157.013334-115.484444z m88.746666 3.413333c-30.151111 1.706667-59.733333 7.964444-88.177777 18.204444-53.475556 19.342222-102.4 53.475556-136.533334 99.555556-28.444444 38.115556-44.942222 83.626667-46.648889 131.413333-1.137778 21.617778 1.137778 43.804444 10.24 64.284445 6.826667 14.791111 17.635556 27.875556 31.857778 36.408889 18.204444 11.377778 39.822222 16.497778 61.44 19.342222 24.462222 2.844444 48.924444 2.844444 73.386667 1.706666 27.306667-1.137778 54.613333-3.413333 81.351111-5.688888 40.391111-3.982222 80.782222-6.257778 120.604444-9.102223 38.115556-2.844444 75.662222-6.257778 112.64-15.928889 21.617778-5.688889 43.804444-13.084444 62.008889-26.737777 13.653333-10.24 24.462222-24.462222 30.151111-40.96 5.688889-16.497778 5.688889-34.133333 3.413334-51.2-2.844444-22.755556-9.102222-44.373333-18.773334-64.853334-15.36-31.288889-36.977778-58.595556-63.715555-80.782222-29.582222-25.031111-63.715556-43.804444-100.693334-56.32-43.235556-15.36-88.177778-21.617778-132.551111-19.342222z" fill="#954607" p-id="2851"></path><path d="M488.675556 333.368889c13.653333-1.706667 27.875556 2.275556 40.96 6.257778 20.48 6.826667 40.391111 16.497778 59.164444 27.306666 15.928889 9.102222 31.288889 19.342222 44.942222 31.288889 7.395556 6.826667 14.791111 13.653333 18.204445 23.324445 2.844444 8.533333-2.275556 16.497778-6.826667 23.324444-10.24 13.653333-23.324444 25.031111-36.408889 35.271111-17.066667 13.084444-34.702222 24.462222-53.475555 34.133334-14.222222 7.395556-29.013333 13.653333-44.373334 17.066666-7.395556 1.706667-14.791111 2.844444-22.186666 0-6.826667-2.844444-10.808889-9.671111-14.222223-16.497778-6.257778-14.222222-9.671111-29.582222-11.946666-44.373333-3.413333-24.462222-3.982222-49.493333-2.275556-74.524444 1.137778-14.791111 3.413333-29.013333 8.533333-42.666667 1.706667-5.688889 4.551111-10.808889 8.533334-14.791111 3.413333-2.844444 7.395556-4.551111 11.377778-5.12zM837.404444 551.822222c1.137778-0.568889 2.275556-2.275556 3.413334-2.275555 28.444444-1.137778 56.888889 1.706667 84.764444 7.395555 0.568889 4.551111 0.568889 8.533333 1.137778 13.084445 1.137778 21.617778-0.568889 43.235556-3.982222 64.284444-17.635556-22.755556-36.977778-43.235556-58.595556-62.008889-8.533333-6.826667-17.066667-14.222222-26.737778-20.48zM129.706667 619.52c35.271111-16.497778 73.386667-26.737778 112.64-30.72-2.275556 2.844444-5.12 5.12-7.395556 7.964444-38.115556 39.253333-68.266667 85.333333-89.315555 135.964445-21.048889-29.582222-35.271111-63.146667-42.666667-98.417778 8.533333-5.688889 17.635556-10.808889 26.737778-14.791111z m644.551111 32.426667c20.48 1.137778 40.96 6.257778 59.733333 14.222222 22.186667 9.102222 42.097778 22.755556 59.733333 38.115555 1.706667 1.706667 3.982222 2.844444 3.982223 5.12-16.497778 31.857778-39.253333 60.302222-67.128889 83.057778-3.982222-20.48-8.533333-41.528889-14.791111-61.44-8.533333-28.444444-21.048889-56.888889-41.528889-79.075555z m-71.111111 7.964444c2.844444-1.706667 5.688889-2.275556 9.102222-1.706667 2.844444 0.568889 5.688889 2.844444 6.826667 6.257778 2.275556 6.826667-1.137778 14.222222-5.688889 19.342222 3.413333 27.306667-4.551111 55.182222-15.928889 80.213334-19.342222-3.982222-37.546667-13.084444-52.906667-25.031111-5.12-3.982222-9.102222-8.533333-13.653333-12.515556-46.08 11.377778-93.866667 15.36-141.653334 12.515556-12.515556 23.324444-32.995556 40.391111-55.751111 52.906666-18.773333-22.186667-31.857778-49.493333-36.977777-77.937777-5.12-3.982222-10.24-8.533333-12.515556-14.222223-0.568889-4.551111 2.844444-7.964444 6.826667-9.671111 3.982222-1.706667 9.671111-2.275556 12.515555 1.706667 5.12 6.826667 13.084444 10.24 21.048889 13.084444 23.893333 9.102222 50.062222 12.515556 75.093333 13.653334 39.253333 1.706667 77.937778-1.706667 116.053334-10.24 22.755556-5.12 44.942222-11.946667 64.853333-23.893334 6.257778-3.982222 13.084444-7.964444 17.635556-14.222222 1.706667-3.982222 1.706667-7.964444 5.12-10.24z m-42.097778 56.32c-6.826667 2.844444-13.653333 4.551111-20.48 6.826667 14.222222 13.653333 31.288889 24.462222 50.062222 29.582222l0.568889 0.568889c8.533333-19.342222 13.653333-40.391111 13.084444-61.44-12.515556 10.808889-27.306667 18.773333-43.235555 24.462222z m-254.293333 2.844445c5.12 21.048889 13.653333 41.528889 27.306666 58.595555l1.137778 1.706667c17.635556-10.24 33.564444-24.462222 43.235556-42.097778-17.066667-1.706667-33.564444-4.551111-50.062223-9.671111-6.826667-1.706667-14.222222-4.551111-21.617777-8.533333z m-163.84 3.982222c25.031111-22.186667 55.751111-37.546667 88.746666-44.942222-7.964444 12.515556-14.791111 26.168889-19.342222 40.391111-13.653333 40.96-17.635556 84.764444-17.635556 127.431111-36.977778-14.791111-71.68-35.84-101.831111-62.008889 12.515556-22.755556 30.151111-43.804444 50.062223-60.871111z" fill="#954607" p-id="2852"></path><path d="M545.564444 178.631111c23.324444-11.377778 48.355556-20.48 74.524445-22.755555 3.982222 0 6.826667 2.844444 10.24 3.982222 29.013333 11.946667 56.32 28.444444 80.213333 48.355555 29.013333 24.462222 54.044444 53.475556 79.644445 81.351111 7.964444 8.533333 17.066667 16.497778 25.031111 25.031112 55.751111 60.302222 95.004444 135.964444 107.52 216.746666 1.706667 13.084444 3.413333 25.6 3.413333 38.684445-0.568889-4.551111-0.568889-8.533333-1.137778-13.084445-27.875556-6.257778-56.32-8.533333-84.764444-7.395555-1.706667 0-2.275556 1.137778-3.413333 2.275555 9.671111 5.688889 17.635556 13.653333 26.168888 20.48 21.617778 18.773333 40.96 39.822222 58.595556 62.008889-4.551111 25.6-12.515556 50.631111-24.462222 73.955556-0.568889-2.275556-2.275556-3.982222-3.982222-5.12-17.635556-15.928889-38.115556-28.444444-59.733334-38.115556-19.342222-7.964444-39.253333-12.515556-59.733333-14.222222 20.48 22.186667 32.995556 50.631111 42.097778 79.075555 6.826667 19.911111 10.808889 40.96 14.791111 61.44-39.822222 33.564444-88.177778 56.32-138.24 71.111112-65.422222 19.342222-134.257778 25.6-202.524445 23.324444-67.128889-2.275556-134.826667-14.791111-196.835555-40.391111 0-43.235556 3.982222-86.471111 17.635555-127.431111 4.551111-14.222222 11.377778-27.875556 19.342223-40.391111-32.995556 6.826667-63.715556 22.186667-88.746667 44.942222-20.48 17.635556-37.546667 38.115556-50.631111 61.44-17.635556-15.36-32.995556-32.426667-46.648889-51.768889 20.48-50.631111 50.631111-96.711111 89.315555-135.964444 2.844444-2.275556 5.12-5.12 7.395556-7.964445-39.253333 3.413333-76.8 13.653333-112.64 30.72-9.102222 4.551111-18.204444 9.102222-26.737778 14.791111-9.102222-47.217778-7.964444-96.142222 3.982222-142.791111C120.035556 432.355556 147.911111 378.311111 186.595556 332.231111c2.844444-8.533333 5.12-17.635556 7.964444-26.168889 11.377778-32.995556 23.893333-65.422222 40.391111-96.711111 7.964444-14.222222 15.928889-28.444444 27.306667-39.822222 2.275556-2.844444 5.688889-2.275556 8.533333-2.275556 37.546667-1.137778 74.524444 6.257778 110.364445 17.066667 6.826667 1.706667 13.084444 4.551111 19.911111 6.257778 1.137778 0.568889 2.844444 1.137778 3.982222 0.568889 44.373333-11.946667 90.453333-15.928889 135.964444-12.515556h4.551111zM426.666667 248.035556c-62.577778 21.048889-119.466667 60.871111-157.582223 115.484444-29.582222 42.097778-46.08 92.728889-46.648888 144.497778 0 23.893333 3.413333 48.924444 14.791111 70.542222 8.533333 16.497778 21.048889 30.72 36.977777 40.391111 13.653333 9.102222 29.582222 14.222222 45.511112 18.204445 20.48 4.551111 41.528889 6.257778 62.577777 6.826666 51.2 0.568889 102.4-5.12 153.6-9.102222l88.746667-6.826667c42.097778-3.413333 85.333333-7.395556 126.293333-18.773333 28.444444-7.964444 56.888889-21.617778 76.231111-44.373333 3.413333-3.982222 6.826667-7.964444 9.102223-13.084445 2.844444-3.413333 4.551111-7.395556 6.257777-10.808889 11.377778-25.031111 11.946667-54.044444 7.395556-81.351111-3.413333-20.48-9.671111-40.96-18.773333-59.733333-15.928889-32.995556-38.115556-62.577778-65.991111-86.471111-26.737778-22.755556-56.888889-41.528889-89.315556-55.182222-78.506667-32.995556-168.96-37.546667-249.173333-10.24z m276.48 411.875555c-3.413333 2.275556-3.413333 6.257778-5.12 9.102222-4.551111 6.257778-11.377778 10.24-17.635556 14.222223-19.911111 11.946667-42.097778 18.773333-64.853333 23.893333-38.115556 8.533333-77.368889 11.946667-116.053334 10.24-25.6-1.137778-51.2-4.551111-75.093333-13.653333-7.395556-3.413333-15.36-6.826667-21.048889-13.084445-2.844444-3.982222-8.533333-2.844444-12.515555-1.706667-3.982222 1.137778-7.395556 5.12-6.826667 9.671112 2.275556 6.257778 7.395556 10.24 12.515556 14.222222 5.12 28.444444 17.635556 55.751111 36.977777 77.937778 22.755556-12.515556 43.235556-29.582222 55.751111-52.906667 47.786667 2.844444 95.004444-1.137778 141.653334-12.515556 4.551111 3.982222 8.533333 9.102222 13.653333 12.515556 15.36 12.515556 33.564444 21.048889 52.906667 25.031111 11.377778-25.031111 19.342222-52.337778 15.928889-80.213333 3.982222-5.688889 7.964444-12.515556 5.688889-19.342223-2.275556-5.12-10.808889-7.395556-15.928889-3.413333z" fill="#F49F17" p-id="2853"></path><path d="M640.568889 723.057778l20.48-6.826667c3.413333 5.688889 6.257778 10.808889 10.808889 15.928889 5.688889 7.395556 12.515556 13.653333 19.342222 20.48-19.342222-5.12-36.408889-15.36-50.631111-29.582222z m-233.813333-3.982222c7.395556 3.413333 14.791111 6.257778 22.186666 8.533333-2.275556 8.533333 0 17.635556 0.568889 26.168889 1.137778 7.964444 3.982222 15.928889 4.551111 23.893333-13.084444-17.066667-22.186667-36.977778-27.306666-58.595555z" fill="#F3EBDE" p-id="2854"></path></svg>
