<svg width="48" height="22" viewBox="0 0 48 22" fill="none" xmlns="http://www.w3.org/2000/svg">
<path d="M14.1248 4.71615L10.7462 5.13579C10.6283 5.15008 10.5801 5.29294 10.6623 5.37687L11.6391 6.35365L8.89799 9.09472C8.8714 9.12157 8.85649 9.15783 8.85649 9.19562C8.85649 9.2334 8.8714 9.26966 8.89799 9.29651L9.70335 10.1019C9.7587 10.1572 9.84977 10.1572 9.90513 10.1019L12.648 7.35901L13.6248 8.33579C13.6436 8.35463 13.6674 8.36777 13.6934 8.37372C13.7193 8.37967 13.7465 8.37818 13.7716 8.36941C13.7968 8.36065 13.819 8.34498 13.8356 8.32419C13.8523 8.3034 13.8628 8.27833 13.8658 8.25187L14.2837 4.87508C14.2867 4.85352 14.2846 4.83156 14.2776 4.81093C14.2707 4.7903 14.2591 4.77155 14.2437 4.75616C14.2283 4.74077 14.2096 4.72915 14.1889 4.72221C14.1683 4.71527 14.1463 4.71319 14.1248 4.71615ZM6.2962 11.8983C6.26935 11.8717 6.23309 11.8568 6.19531 11.8568C6.15752 11.8568 6.12127 11.8717 6.09442 11.8983L3.35334 14.6412L2.37656 13.6644C2.35771 13.6455 2.33394 13.6324 2.30797 13.6264C2.282 13.6205 2.25487 13.622 2.22971 13.6307C2.20455 13.6395 2.18236 13.6552 2.16569 13.676C2.14903 13.6968 2.13856 13.7218 2.13549 13.7483L1.71584 17.1251C1.70513 17.2179 1.78192 17.2947 1.87477 17.284L5.25335 16.8644C5.3712 16.8501 5.41942 16.7072 5.33727 16.6233L4.36049 15.6465L7.10334 12.9037C7.1587 12.8483 7.1587 12.7572 7.10334 12.7019L6.2962 11.8983Z" fill="#1881DA"/>
<path d="M23.57 9.882V10.778H25.614V12.234H22.828C22.912 11.478 22.968 10.68 22.968 9.84V8.468H25.614V9.882H23.57ZM22.688 13.158H24.648V15.804C24.648 16.14 24.48 16.378 24.144 16.504L24.424 17.386C25.88 17.092 27.14 16.756 28.204 16.364L28.008 15.44C27.336 15.734 26.552 16 25.642 16.224V13.158H27.546C28.61 15.384 30.43 16.826 33.006 17.47L33.496 16.518C32.432 16.294 31.508 15.93 30.696 15.412C31.34 15.048 31.914 14.544 32.418 13.928L31.718 13.242C31.144 13.97 30.542 14.488 29.912 14.824C29.38 14.348 28.918 13.802 28.554 13.158H33.048V12.234H30.388V10.778H32.586V9.882H30.388V8.468H32.334V5.108H21.946V9.84C21.932 12.626 21.442 14.908 20.49 16.672L21.302 17.4C21.946 16.14 22.408 14.726 22.688 13.158ZM29.408 8.468V9.882H26.58V8.468H29.408ZM26.58 12.234V10.778H29.408V12.234H26.58ZM31.326 6.032V7.558H22.968V6.032H31.326ZM35.568 5.402V6.382H38.116V9.602C38.116 9.742 38.102 9.91 38.102 10.092H34.812V11.058H38.046C37.934 12.178 37.738 13.13 37.444 13.942C36.996 15.006 36.198 15.86 35.064 16.504L35.61 17.372C36.842 16.728 37.724 15.818 38.256 14.642C38.676 13.69 38.942 12.5 39.068 11.058H43.114V17.26H44.136V11.058H47.202V10.092H44.136V6.382H46.474V5.402H35.568ZM39.152 6.382H43.114V10.092H39.138C39.138 9.938 39.152 9.77 39.152 9.602V6.382Z" fill="#1881DA"/>
</svg>
