<?xml version="1.0" standalone="no"?><!DOCTYPE svg PUBLIC "-//W3C//DTD SVG 1.1//EN" "http://www.w3.org/Graphics/SVG/1.1/DTD/svg11.dtd"><svg t="1649046909281" class="icon" viewBox="0 0 1024 1024" version="1.1" xmlns="http://www.w3.org/2000/svg" p-id="2225" xmlns:xlink="http://www.w3.org/1999/xlink" width="200" height="200"><defs><style type="text/css">@font-face { font-family: feedback-iconfont; src: url("//at.alicdn.com/t/font_1031158_u69w8yhxdu.woff2?t=1630033759944") format("woff2"), url("//at.alicdn.com/t/font_1031158_u69w8yhxdu.woff?t=1630033759944") format("woff"), url("//at.alicdn.com/t/font_1031158_u69w8yhxdu.ttf?t=1630033759944") format("truetype"); }
</style></defs><path d="M138.971429 877.714286c-14.628571 0-21.942857 0-36.571429-14.628572-29.257143-21.942857-21.942857-73.142857-7.314286-131.657143 7.314286-14.628571 14.628571-43.885714 14.628572-58.514285-43.885714-65.828571-73.142857-138.971429-73.142857-212.114286C36.571429 248.685714 248.685714 73.142857 512 73.142857s475.428571 175.542857 475.428571 394.971429-212.114286 394.971429-475.428571 394.971428c-73.142857 0-146.285714-14.628571-219.428571-43.885714-7.314286 0-43.885714 14.628571-65.828572 29.257143-29.257143 14.628571-58.514286 29.257143-87.771428 29.257143zM512 146.285714C292.571429 146.285714 109.714286 292.571429 109.714286 468.114286c0 58.514286 21.942857 117.028571 58.514285 168.228571 21.942857 29.257143 7.314286 65.828571 0 117.028572 0 14.628571-7.314286 29.257143-7.314285 43.885714l43.885714-21.942857c51.2-21.942857 87.771429-43.885714 124.342857-29.257143 58.514286 21.942857 124.342857 36.571429 190.171429 36.571428 219.428571 0 402.285714-146.285714 402.285714-321.828571S731.428571 146.285714 512 146.285714z" p-id="2226"></path><path d="M643.657143 416.914286m-36.571429 0a36.571429 36.571429 0 1 0 73.142857 0 36.571429 36.571429 0 1 0-73.142857 0Z" p-id="2227"></path><path d="M380.342857 416.914286m-36.571428 0a36.571429 36.571429 0 1 0 73.142857 0 36.571429 36.571429 0 1 0-73.142857 0Z" p-id="2228"></path></svg>
